<svg xmlns="http://www.w3.org/2000/svg" preserveAspectRatio="none" width="236.478" height="9.642" viewBox="0 0 236.478 9.642">
    <defs>
        <style>.a{fill:#FFF377;}</style>
    </defs>
    <path class="a" d="M562.631,256.448c-15.1-2.227-30.69-1.987-45.888-2.68-15.036-.686-30.075-1.23-45.115-1.772-30.35-1.093-60.7-1.883-91.06-2.151-17.406-.154-34.875-.62-52.269.286-1.4.073-1.406,2.582,0,2.637,30.32,1.191,60.735.329,91.073.914,30.36.585,60.7,1.432,91.04,2.892q13.059.627,26.113,1.354c8.666.483,17.431,1.494,26.106,1.27C564.131,259.159,564.046,256.657,562.631,256.448Z" transform="translate(-327.247 -249.588)"/>
</svg>