<svg xmlns="http://www.w3.org/2000/svg" width="48.374" height="36.847" viewBox="0 0 48.374 36.847"><g transform="translate(41.288 17.006)"><path d="M442.669,241h-4.252a1.417,1.417,0,1,0,0,2.834h4.252a1.417,1.417,0,0,0,0-2.834Z" transform="translate(-437 -241)"/></g><g transform="translate(39.871 22.675)"><path d="M427.254,304.251l-2.834-2.834a1.417,1.417,0,0,0-2,2l2.834,2.834a1.417,1.417,0,1,0,2-2Z" transform="translate(-422 -301.001)"/></g><g transform="translate(39.871 8.503)"><path d="M427.253,151.416a1.417,1.417,0,0,0-2,0l-2.834,2.834a1.417,1.417,0,1,0,2,2l2.834-2.834A1.417,1.417,0,0,0,427.253,151.416Z" transform="translate(-422 -151.001)"/></g><path d="M32.785,61a4.258,4.258,0,0,0-4.2,3.617L27.288,65.91A12.761,12.761,0,0,1,18.424,69.5H9.92a4.258,4.258,0,0,0-4.008,2.834H5.669a5.669,5.669,0,1,0,0,11.338h.244A4.272,4.272,0,0,0,8.5,86.266V93.6a4.252,4.252,0,1,0,8.5,0V86.51h1.417A12.761,12.761,0,0,1,27.288,90.1L28.581,91.4a4.252,4.252,0,0,0,8.456-.635V65.252A4.256,4.256,0,0,0,32.785,61ZM5.669,80.841a2.834,2.834,0,1,1,0-5.669Zm8.5,12.755a1.417,1.417,0,0,1-2.834,0V86.51h2.834Zm2.834-9.92H9.92A1.419,1.419,0,0,1,8.5,82.258v-8.5A1.419,1.419,0,0,1,9.92,72.338h7.086Zm11.527,3.717a15.49,15.49,0,0,0-8.7-3.653V72.273a15.489,15.489,0,0,0,8.7-3.653ZM34.2,90.761a1.419,1.419,0,0,1-1.417,1.417h0a1.419,1.419,0,0,1-1.417-1.417V65.252a1.417,1.417,0,1,1,2.834,0Z" transform="translate(0 -61)"/></svg>