<svg xmlns="http://www.w3.org/2000/svg" width="773.814" height="592.982" viewBox="0 0 773.814 592.982"><defs><style>.a,.c{fill:#fff;}.b,.c{stroke:none;}</style></defs><g class="a" transform="translate(-79.714 -142.357)"><path class="b" d="M 492.0249328613281 683.8390502929688 C 492.0122375488281 683.8390502929688 492.0099182128906 683.8390502929688 491.9972229003906 683.8390502929688 C 360.9658508300781 683.8339233398438 250.4739685058594 648.2412719726562 196.4313507080078 588.62890625 C 169.2398529052734 558.635009765625 155.2759246826172 522.6380004882812 155.5934448242188 483.7808227539062 C 127.1499710083008 418.7853393554688 125.428840637207 412.1071166992188 139.0677185058594 389.43017578125 L 152.4730987548828 367.1414184570312 L 178.3927154541016 364.6840515136719 C 274.2441101074219 355.6492919921875 318.6498413085938 313.4031677246094 361.5934753417969 272.5479125976562 C 393.9848327636719 241.7317962646484 427.4790954589844 209.8664245605469 477.3003540039062 200.0433044433594 C 498.1217346191406 195.9381713867188 519.349609375 193.8566741943359 540.3943481445312 193.8566741943359 C 666.6724853515625 193.8566741943359 757.1862182617188 265.0224304199219 788.7267456054688 389.1061706542969 C 811.616943359375 479.1607971191406 825.4957275390625 604.6802978515625 682.3701171875 654.7981567382812 C 628.8907470703125 673.5247192382812 561.2862548828125 683.8390502929688 492.0249328613281 683.8390502929688 Z"/><path class="c" d="M 540.3941650390625 245.3566284179688 C 521.652099609375 245.356201171875 503.61474609375 247.3464965820312 487.2626037597656 250.5704345703125 C 397.914794921875 268.18701171875 370.44189453125 398.3100891113281 183.2255249023438 415.9568176269531 C 182.063720703125 416.0435485839844 207.6302490234375 474.209716796875 207.6278686523438 474.21044921875 C 196.955322265625 582.8838500976562 345.6019897460938 632.3389892578125 491.9993286132812 632.3389892578125 C 554.3551635742188 632.3389892578125 616.2818603515625 623.3739013671875 665.349853515625 606.19189453125 C 742.2711181640625 579.2566528320312 770.23828125 525.4229736328125 738.8138427734375 401.7933654785156 C 707.740478515625 279.5469360351562 618.06298828125 245.3582763671875 540.3941650390625 245.3566284179688 M 540.3889770507812 142.3566284179688 L 540.39111328125 142.3566284179688 C 689.891357421875 142.3597412109375 801.3858642578125 229.8597412109375 838.6395263671875 376.4190063476562 C 868.2645874023438 492.970458984375 868.1542358398438 644.308837890625 699.3904418945312 703.404296875 C 640.580078125 723.9977416992188 566.9271240234375 735.3389892578125 491.9993286132812 735.3389892578125 C 422.2211303710938 735.3389892578125 250.0198974609375 724.4144287109375 158.2805786132812 623.2244873046875 C 124.7999877929688 586.294677734375 106.4285888671875 542.4144287109375 104.2802734375 494.9104919433594 C 78.1527099609375 434.399169921875 69.54803466796875 405.095703125 94.93548583984375 362.8859252929688 L 121.7462158203125 318.3095703125 L 173.5596923828125 313.411376953125 C 251.66259765625 306.049560546875 284.5098876953125 274.799560546875 326.0960693359375 235.2359008789062 C 360.2822265625 202.7120971679688 402.8282470703125 162.2351684570312 467.337890625 149.5159301757812 C 491.4333190917969 144.765380859375 516.010986328125 142.3566284179688 540.3889770507812 142.3566284179688 Z"/></g></svg>