<svg xmlns="http://www.w3.org/2000/svg" preserveAspectRatio="none" width="488.764" height="111.858" viewBox="0 0 488.764 111.858"><defs><style>.a{fill:#fff;}</style></defs><path class="a" d="M640.668,371.325q-5.287-40.986-8.958-82.218c-1.538-29.481-5.234-159.525-8.024-189.017-2.41-25.581-29.9-29.649-35.08-9.164-8.966-13.455-30.933-7.32-29.646,13.9,2.332,38.667,1.781,26.068,1.8,37.124-1.539-9.242-.856,3.8-2.868-34.531-.665-20.4,2.133-10.947,1.071-31.331-1.3-24.586-30.017-25.167-29.9,0,.225,50.771.682,172.137,5.009,222.494,1.348,67.657.6,135.358-1.555,203.25-.527,16.573,18,15.646,19.47,0,1.2-12.863,2.229-25.748,3.179-38.634,3.844,22.787,7.93,45.507,12.482,68.081,3.749,18.563,28.79,21.167,31.115,0,.9-8.236,1.632-16.473,2.3-24.709,8.163,17.076,30.328,14.674,31.451-10.337q2.358-52.653,2.116-105.028C638.932,387,641.791,380.053,640.668,371.325Z" transform="translate(546.195 -529.056) rotate(90)"/></svg>