<svg xmlns="http://www.w3.org/2000/svg" width="18.111" height="16.557" viewBox="0 0 18.111 16.557"><defs><style>.a{fill:#c472ff;stroke:#c472ff;stroke-width:2px;}</style></defs><path class="a" d="M36.926,687.555c-2.414,1.966-4.242,4.983-6.055,7.506-.6.836-1.521,1.826-2.177,2.883-.286-.235-.574-.465-.842-.7-.985-.881-2.021-1.7-3.067-2.521-.593-.463-1.9.838-1.431,1.431.818,1.046,1.639,2.082,2.521,3.067.789.885,1.425,2.021,2.683,2.371a.729.729,0,0,0,.194.011.949.949,0,0,0,1.08-.244c.1-.12.2-.242.3-.366a.761.761,0,0,0,.165-.775c.6-1.445,3.54-4.143,4.311-5.086,1.53-1.871,3.353-3.678,4.466-5.827A1.4,1.4,0,0,0,36.926,687.555Z" transform="translate(-22.201 -686.134)"/></svg>