<svg xmlns="http://www.w3.org/2000/svg" preserveAspectRatio="none" width="172.508" height="12.743" viewBox="0 0 172.508 12.743"><defs><style>.a{fill:#fff;}</style></defs><g transform="translate(-40.647 -290.413)"><path class="a" d="M198.767,300.527c-12.467-2.437-25.5-1.995-38.08-1.98-13.364.018-26.728.462-40.085.986-26.439,1.036-52.938,2.039-79.355-.289-.806-.071-.791,1.531,0,1.623,26.16,3.057,52.4,2.428,78.627,1.641,13.117-.394,26.234-.886,39.356-.909,13.1-.023,26.2,1.4,39.288,1.318C199.533,302.911,199.841,300.737,198.767,300.527Z" transform="translate(0)"/><path class="a" d="M212.127,294.628c-14.315-2.006-29.05-1.6-43.442-2.276-14.045-.662-28.091-1.456-42.143-1.832-28.537-.763-56.931,2.719-85.4,4.664-.657.045-.66,1.27,0,1.308,14.416.818,28.922-.774,43.308-1.817a417.6,417.6,0,0,1,42.092-1.1c14.052.4,28.1,1.213,42.143,1.9,14.384.7,29.056,2.524,43.442,1.885C213.529,297.293,213.469,294.816,212.127,294.628Z"/></g></svg>