<svg xmlns="http://www.w3.org/2000/svg" width="132.08" height="8.53" viewBox="0 0 132.08 8.53"><defs><style>.a{fill:#fff;}</style></defs><path class="a" d="M171.33,219.347c-10.751-.387-21.681.929-32.427,1.412q-16.226.729-32.466.993c-21.667.385-43.275-.426-64.932-.624-1.163-.01-1.123,1.679,0,1.78,4.466.4,8.947.712,13.434.973q-4.794-.109-9.586-.227c-1.546-.039-1.526,2.3,0,2.389,19.2,1.124,38.44,1.614,57.675,1.736q14.187.09,28.372-.107c9.127-.127,18.8.39,27.806-1.167,1.744-.3,1.131-2.731-.389-2.878-.113-.01-.228-.013-.341-.023a120.261,120.261,0,0,0,13.232-1.467C173.339,221.851,172.867,219.4,171.33,219.347Z" transform="translate(-40.648 -219.277)"/></svg>